ffmpeg started on 2016-12-07 at 14:01:05
Report written to "Output/x264/results/ffmpeg/sintelslow10000k.log"
Command line:
Tools/ffmpeg/ffmpeg -benchmark -y -i Input/y4m/sintel.y4m -c:v libx264 -preset slow -b:v 10000k -an Output/x264/encoded/sintelslow10000k.mkv
ffmpeg version N-82227-gdb23fde Copyright (c) 2000-2016 the FFmpeg developers
  built with gcc 5.4.0 (Ubuntu 5.4.0-6ubuntu1~16.04.2) 20160609
  configuration: --prefix=/home/jaroslav/ffmpeg_build --pkg-config-flags=--static --extra-cflags=-I/home/jaroslav/ffmpeg_build/include --extra-ldflags=-L/home/jaroslav/ffmpeg_build/lib --bindir=/home/jaroslav/bin --enable-gpl --enable-libass --enable-libfdk-aac --enable-libfreetype --enable-libmp3lame --enable-libopus --enable-libtheora --enable-libvorbis --enable-libvpx --enable-libx264 --enable-libx265 --enable-nvenc --enable-libmfx --enable-libxvid --enable-libgsm --enable-libopencore-amrnb --enable-version3 --enable-nonfree
  libavutil      55. 35.100 / 55. 35.100
  libavcodec     57. 66.101 / 57. 66.101
  libavformat    57. 57.100 / 57. 57.100
  libavdevice    57.  2.100 / 57.  2.100
  libavfilter     6. 66.100 /  6. 66.100
  libswscale      4.  3.100 /  4.  3.100
  libswresample   2.  4.100 /  2.  4.100
  libpostproc    54.  2.100 / 54.  2.100
Input #0, yuv4mpegpipe, from 'Input/y4m/sintel.y4m':
  Duration: 00:00:20.83, start: 0.000000, bitrate: 2057307 kb/s
    Stream #0:0: Video: rawvideo (I420 / 0x30323449), yuv420p(progressive), 4096x1744, SAR 1:1 DAR 256:109, 24 fps, 24 tbr, 24 tbn, 24 tbc
[libx264 @ 0x3c0b1c0] using SAR=1/1
[libx264 @ 0x3c0b1c0] using cpu capabilities: MMX2 SSE2Fast SSSE3 SSE4.2 AVX FMA3 AVX2 LZCNT BMI2
[libx264 @ 0x3c0b1c0] profile High, level 5.1
[libx264 @ 0x3c0b1c0] 264 - core 148 - H.264/MPEG-4 AVC codec - Copyleft 2003-2016 - http://www.videolan.org/x264.html - options: cabac=1 ref=5 deblock=1:0:0 analyse=0x3:0x113 me=hex subme=8 psy=1 psy_rd=1.00:0.00 mixed_ref=1 me_range=16 chroma_me=1 trellis=2 8x8dct=1 cqm=0 deadzone=21,11 fast_pskip=1 chroma_qp_offset=-2 threads=6 lookahead_threads=1 sliced_threads=0 nr=0 decimate=1 interlaced=0 bluray_compat=0 constrained_intra=0 bframes=3 b_pyramid=2 b_adapt=1 b_bias=0 direct=3 weightb=1 open_gop=0 weightp=2 keyint=250 keyint_min=24 scenecut=40 intra_refresh=0 rc_lookahead=50 rc=abr mbtree=1 bitrate=10000 ratetol=1.0 qcomp=0.60 qpmin=0 qpmax=69 qpstep=4 ip_ratio=1.40 aq=1:1.00
Output #0, matroska, to 'Output/x264/encoded/sintelslow10000k.mkv':
  Metadata:
    encoder         : Lavf57.57.100
    Stream #0:0: Video: h264 (libx264) (H264 / 0x34363248), yuv420p, 4096x1744 [SAR 1:1 DAR 256:109], q=-1--1, 10000 kb/s, 24 fps, 1k tbn, 24 tbc
    Metadata:
      encoder         : Lavc57.66.101 libx264
    Side data:
      cpb: bitrate max/min/avg: 0/0/10000000 buffer size: 0 vbv_delay: -1
Stream mapping:
  Stream #0:0 -> #0:0 (rawvideo (native) -> h264 (libx264))
Press [q] to stop, [?] for help
frame=    9 fps=0.0 q=0.0 size=       0kB time=00:00:00.00 bitrate=N/A speed=   0x    frame=   18 fps= 17 q=0.0 size=       0kB time=00:00:00.00 bitrate=N/A speed=   0x    frame=   27 fps= 17 q=0.0 size=       0kB time=00:00:00.00 bitrate=N/A speed=   0x    frame=   36 fps= 17 q=0.0 size=       0kB time=00:00:00.00 bitrate=N/A speed=   0x    frame=   44 fps=7.8 q=0.0 size=       0kB time=00:00:00.00 bitrate=N/A speed=   0x    frame=   45 fps=5.2 q=0.0 size=       0kB time=00:00:00.00 bitrate=N/A speed=   0x    frame=   46 fps=3.9 q=0.0 size=       0kB time=00:00:00.00 bitrate=N/A speed=   0x    frame=   55 fps=4.5 q=0.0 size=       0kB time=00:00:00.00 bitrate=N/A speed=   0x    frame=   57 fps=3.8 q=0.0 size=       0kB time=00:00:00.00 bitrate=N/A speed=   0x    frame=   62 fps=3.9 q=25.0 size=       1kB time=-00:00:00.04 bitrate=N/A speed=N/A    frame=   63 fps=3.8 q=25.0 size=       1kB time=00:00:00.00 bitrate=5872.0kbits/s speed=6.03e-05x    frame=   66 fps=3.8 q=31.0 size=       1kB time=00:00:00.12 bitrate=  46.6kbits/s speed=0.00722x    frame=   67 fps=3.7 q=42.0 size=       1kB time=00:00:00.16 bitrate=  35.0kbits/s speed=0.00931x    frame=   71 fps=3.8 q=43.0 size=       1kB time=00:00:00.33 bitrate=  17.6kbits/s speed=0.0178x    frame=   75 fps=3.8 q=42.0 size=       1kB time=00:00:00.50 bitrate=  11.7kbits/s speed=0.0256x    frame=   80 fps=4.0 q=42.0 size=       1kB time=00:00:00.70 bitrate=   8.3kbits/s speed=0.0352x    frame=   82 fps=4.0 q=42.0 size=       1kB time=00:00:00.79 bitrate=   7.4kbits/s speed=0.0383x    frame=   84 fps=3.9 q=41.0 size=       1kB time=00:00:00.87 bitrate=   6.7kbits/s speed=0.0411x    frame=   90 fps=4.1 q=41.0 size=       1kB time=00:00:01.12 bitrate=   5.2kbits/s speed=0.0507x    frame=   93 fps=4.1 q=40.0 size=       1kB time=00:00:01.25 bitrate=   4.7kbits/s speed=0.0549x    frame=   96 fps=4.1 q=40.0 size=       1kB time=00:00:01.37 bitrate=   4.3kbits/s speed=0.0587x    frame=   99 fps=4.1 q=40.0 size=       1kB time=00:00:01.50 bitrate=   3.9kbits/s speed=0.0626x    frame=  102 fps=4.2 q=39.0 size=       1kB time=00:00:01.62 bitrate=   3.6kbits/s speed=0.0662x    frame=  106 fps=4.2 q=39.0 size=       1kB time=00:00:01.79 bitrate=   3.3kbits/s speed=0.0712x    frame=  110 fps=4.2 q=38.0 size=       1kB time=00:00:01.95 bitrate=   3.0kbits/s speed=0.0756x    frame=  112 fps=4.2 q=38.0 size=       1kB time=00:00:02.04 bitrate=   2.9kbits/s speed=0.0773x    frame=  115 fps=4.3 q=38.0 size=       1kB time=00:00:02.16 bitrate=   2.7kbits/s speed=0.0801x    frame=  117 fps=4.2 q=38.0 size=       1kB time=00:00:02.25 bitrate=   2.6kbits/s speed=0.0815x    frame=  120 fps=4.3 q=38.0 size=       1kB time=00:00:02.37 bitrate=   2.5kbits/s speed=0.0844x    frame=  122 fps=4.2 q=38.0 size=       1kB time=00:00:02.45 bitrate=   2.4kbits/s speed=0.0856x    frame=  125 fps=4.2 q=38.0 size=       1kB time=00:00:02.58 bitrate=   2.3kbits/s speed=0.0877x    frame=  128 fps=4.3 q=38.0 size=       1kB time=00:00:02.70 bitrate=   2.2kbits/s speed=0.0901x    frame=  131 fps=4.3 q=38.0 size=       1kB time=00:00:02.83 bitrate=   2.1kbits/s speed=0.0923x    frame=  134 fps=4.3 q=38.0 size=       1kB time=00:00:02.95 bitrate=   2.0kbits/s speed=0.0943x    frame=  137 fps=4.3 q=37.0 size=       1kB time=00:00:03.08 bitrate=   1.9kbits/s speed=0.0961x    frame=  140 fps=4.3 q=37.0 size=       1kB time=00:00:03.20 bitrate=   1.8kbits/s speed=0.0979x    frame=  143 fps=4.3 q=37.0 size=       1kB time=00:00:03.33 bitrate=   1.8kbits/s speed=0.0997x    frame=  146 fps=4.3 q=37.0 size=       1kB time=00:00:03.45 bitrate=   1.7kbits/s speed=0.102x    frame=  148 fps=4.3 q=37.0 size=       1kB time=00:00:03.54 bitrate=   1.7kbits/s speed=0.103x    frame=  151 fps=4.3 q=37.0 size=    5132kB time=00:00:03.66 bitrate=11462.5kbits/s speed=0.104x    frame=  154 fps=4.3 q=37.0 size=    5132kB time=00:00:03.79 bitrate=11084.8kbits/s speed=0.106x    frame=  159 fps=4.4 q=36.0 size=    5357kB time=00:00:04.00 bitrate=10967.7kbits/s speed=0.11x    frame=  163 fps=4.3 q=36.0 size=    5357kB time=00:00:04.16 bitrate=10528.3kbits/s speed=0.111x    frame=  169 fps=4.4 q=36.0 size=    5357kB time=00:00:04.41 bitrate=9932.5kbits/s speed=0.116x    frame=  171 fps=4.4 q=34.0 size=    5357kB time=00:00:04.50 bitrate=9749.3kbits/s speed=0.116x    frame=  174 fps=4.4 q=36.0 size=    5357kB time=00:00:04.62 bitrate=9485.9kbits/s speed=0.118x    frame=  179 fps=4.5 q=36.0 size=    5357kB time=00:00:04.83 bitrate=9077.7kbits/s speed=0.122x    frame=  181 fps=4.5 q=36.0 size=    5357kB time=00:00:04.91 bitrate=8922.7kbits/s speed=0.121x    frame=  186 fps=4.5 q=36.0 size=    5357kB time=00:00:05.12 bitrate=8560.6kbits/s speed=0.124x    frame=  188 fps=4.5 q=36.0 size=    5357kB time=00:00:05.20 bitrate=8424.2kbits/s speed=0.124x    frame=  190 fps=4.5 q=36.0 size=    5357kB time=00:00:05.29 bitrate=8290.5kbits/s speed=0.125x    frame=  193 fps=4.5 q=36.0 size=    5357kB time=00:00:05.41 bitrate=8099.3kbits/s speed=0.126x    frame=  196 fps=4.5 q=36.0 size=    5357kB time=00:00:05.54 bitrate=7916.6kbits/s speed=0.127x    frame=  199 fps=4.5 q=36.0 size=    5357kB time=00:00:05.66 bitrate=7742.0kbits/s speed=0.128x    frame=  203 fps=4.5 q=35.0 size=    5357kB time=00:00:05.83 bitrate=7521.7kbits/s speed=0.13x    frame=  206 fps=4.5 q=35.0 size=    5357kB time=00:00:05.95 bitrate=7364.0kbits/s speed=0.131x    frame=  208 fps=4.5 q=35.0 size=    5357kB time=00:00:06.04 bitrate=7261.6kbits/s speed=0.132x    frame=  211 fps=4.5 q=35.0 size=    5357kB time=00:00:06.16 bitrate=7114.4kbits/s speed=0.133x    frame=  215 fps=4.6 q=35.0 size=    5357kB time=00:00:06.33 bitrate=6928.0kbits/s speed=0.135x    frame=  221 fps=4.6 q=35.0 size=    7895kB time=00:00:06.58 bitrate=9823.1kbits/s speed=0.138x    frame=  223 fps=4.6 q=35.0 size=    7895kB time=00:00:06.66 bitrate=9699.4kbits/s speed=0.138x    frame=  226 fps=4.6 q=35.0 size=    7895kB time=00:00:06.79 bitrate=9520.9kbits/s speed=0.14x    frame=  229 fps=4.6 q=35.0 size=    7895kB time=00:00:06.91 bitrate=9348.9kbits/s speed=0.14x    frame=  232 fps=4.6 q=35.0 size=    7895kB time=00:00:07.04 bitrate=9183.0kbits/s speed=0.141x    frame=  235 fps=4.6 q=35.0 size=    7895kB time=00:00:07.16 bitrate=9022.8kbits/s speed=0.142x    frame=  239 fps=4.7 q=32.0 size=    7895kB time=00:00:07.33 bitrate=8818.6kbits/s speed=0.143x    frame=  241 fps=4.6 q=35.0 size=    7895kB time=00:00:07.41 bitrate=8718.7kbits/s speed=0.143x    frame=  249 fps=4.7 q=34.0 size=    9011kB time=00:00:07.75 bitrate=9523.8kbits/s speed=0.148x    frame=  250 fps=4.7 q=34.0 size=    9011kB time=00:00:07.79 bitrate=9472.5kbits/s speed=0.147x    frame=  256 fps=4.7 q=34.0 size=    9011kB time=00:00:08.04 bitrate=9178.1kbits/s speed=0.149x    frame=  259 fps=4.8 q=34.0 size=    9011kB time=00:00:08.16 bitrate=9037.6kbits/s speed=0.15x    frame=  261 fps=4.7 q=34.0 size=    9011kB time=00:00:08.25 bitrate=8946.7kbits/s speed=0.15x    frame=  264 fps=4.7 q=34.0 size=    9011kB time=00:00:08.37 bitrate=8813.2kbits/s speed=0.15x    frame=  268 fps=4.8 q=34.0 size=    9011kB time=00:00:08.54 bitrate=8640.9kbits/s speed=0.152x    frame=  271 fps=4.8 q=34.0 size=    9011kB time=00:00:08.66 bitrate=8516.3kbits/s speed=0.152x    frame=  274 fps=4.8 q=34.0 size=    9011kB time=00:00:08.79 bitrate=8395.2kbits/s speed=0.153x    frame=  277 fps=4.8 q=34.0 size=    9011kB time=00:00:08.91 bitrate=8277.6kbits/s speed=0.154x    frame=  281 fps=4.8 q=34.0 size=    9011kB time=00:00:09.08 bitrate=8126.3kbits/s speed=0.155x    frame=  287 fps=4.8 q=34.0 size=    9011kB time=00:00:09.33 bitrate=7908.7kbits/s speed=0.157x    frame=  289 fps=4.8 q=34.0 size=    9011kB time=00:00:09.41 bitrate=7838.1kbits/s speed=0.157x    frame=  294 fps=4.8 q=34.0 size=    9011kB time=00:00:09.62 bitrate=7668.7kbits/s speed=0.159x    frame=  300 fps=4.9 q=33.0 size=    9011kB time=00:00:09.87 bitrate=7474.6kbits/s speed=0.161x    frame=  303 fps=4.9 q=33.0 size=    9011kB time=00:00:10.00 bitrate=7381.2kbits/s speed=0.161x    frame=  307 fps=4.9 q=33.0 size=    9011kB time=00:00:10.16 bitrate=7260.0kbits/s speed=0.162x    frame=  311 fps=4.9 q=33.0 size=    9011kB time=00:00:10.33 bitrate=7143.3kbits/s speed=0.163x    frame=  315 fps=4.9 q=33.0 size=    9011kB time=00:00:10.50 bitrate=7029.7kbits/s speed=0.164x    frame=  320 fps=4.9 q=33.0 size=    9011kB time=00:00:10.70 bitrate=6893.2kbits/s speed=0.165x    frame=  322 fps=4.9 q=33.0 size=    9011kB time=00:00:10.79 bitrate=6839.6kbits/s speed=0.165x    frame=  328 fps=5.0 q=33.0 size=   12246kB time=00:00:11.04 bitrate=9084.2kbits/s speed=0.168x    frame=  333 fps=5.0 q=33.0 size=   12246kB time=00:00:11.25 bitrate=8916.3kbits/s speed=0.169x    frame=  337 fps=5.0 q=33.0 size=   12246kB time=00:00:11.41 bitrate=8785.9kbits/s speed=0.17x    frame=  340 fps=5.0 q=32.0 size=   12246kB time=00:00:11.54 bitrate=8690.7kbits/s speed=0.171x    frame=  344 fps=5.0 q=32.0 size=   12246kB time=00:00:11.70 bitrate=8567.5kbits/s speed=0.172x    frame=  348 fps=5.1 q=32.0 size=   12246kB time=00:00:11.87 bitrate=8447.1kbits/s speed=0.173x    frame=  355 fps=5.1 q=32.0 size=   12246kB time=00:00:12.16 bitrate=8244.4kbits/s speed=0.176x    frame=  358 fps=5.1 q=32.0 size=   12246kB time=00:00:12.29 bitrate=8160.5kbits/s speed=0.176x    frame=  364 fps=5.2 q=32.0 size=   12246kB time=00:00:12.54 bitrate=7997.9kbits/s speed=0.178x    frame=  371 fps=5.2 q=31.0 size=   12246kB time=00:00:12.83 bitrate=7816.5kbits/s speed=0.18x    frame=  376 fps=5.2 q=31.0 size=   12246kB time=00:00:13.04 bitrate=7691.3kbits/s speed=0.182x    frame=  380 fps=5.2 q=31.0 size=   12246kB time=00:00:13.20 bitrate=7594.6kbits/s speed=0.182x    frame=  387 fps=5.3 q=31.0 size=   12246kB time=00:00:13.50 bitrate=7430.4kbits/s speed=0.185x    frame=  392 fps=5.3 q=31.0 size=   12246kB time=00:00:13.70 bitrate=7317.6kbits/s speed=0.186x    frame=  396 fps=5.3 q=31.0 size=   12246kB time=00:00:13.87 bitrate=7229.6kbits/s speed=0.187x    frame=  404 fps=5.4 q=30.0 size=   12246kB time=00:00:14.20 bitrate=7060.1kbits/s speed=0.189x    frame=  412 fps=5.4 q=30.0 size=   12246kB time=00:00:14.54 bitrate=6898.0kbits/s speed=0.191x    frame=  418 fps=5.4 q=28.0 size=   12246kB time=00:00:14.79 bitrate=6781.4kbits/s speed=0.193x    frame=  424 fps=5.5 q=30.0 size=   15379kB time=00:00:15.04 bitrate=8375.0kbits/s speed=0.195x    frame=  428 fps=5.5 q=29.0 size=   15379kB time=00:00:15.20 bitrate=8283.6kbits/s speed=0.195x    frame=  432 fps=5.5 q=29.0 size=   15379kB time=00:00:15.37 bitrate=8193.6kbits/s speed=0.195x    frame=  436 fps=5.5 q=29.0 size=   15379kB time=00:00:15.54 bitrate=8105.6kbits/s speed=0.196x    frame=  440 fps=5.5 q=29.0 size=   15379kB time=00:00:15.70 bitrate=8019.9kbits/s speed=0.196x    frame=  447 fps=5.5 q=29.0 size=   15379kB time=00:00:16.00 bitrate=7873.6kbits/s speed=0.198x    frame=  448 fps=5.5 q=29.0 size=   15379kB time=00:00:16.04 bitrate=7853.0kbits/s speed=0.197x    frame=  452 fps=5.5 q=29.0 size=   15379kB time=00:00:16.20 bitrate=7772.6kbits/s speed=0.198x    frame=  455 fps=5.5 q=29.0 size=   15379kB time=00:00:16.33 bitrate=7713.1kbits/s speed=0.198x    frame=  461 fps=5.5 q=29.0 size=   15379kB time=00:00:16.58 bitrate=7596.8kbits/s speed=0.197x    frame=  467 fps=5.5 q=29.0 size=   15379kB time=00:00:16.83 bitrate=7484.0kbits/s speed=0.198x    frame=  475 fps=5.5 q=29.0 size=   15379kB time=00:00:17.16 bitrate=7338.4kbits/s speed=0.199x    frame=  482 fps=5.6 q=29.0 size=   18174kB time=00:00:17.45 bitrate=8527.5kbits/s speed=0.201x    frame=  484 fps=5.5 q=29.0 size=   18174kB time=00:00:17.54 bitrate=8486.7kbits/s speed=0.201x    frame=  489 fps=5.6 q=29.0 size=   18174kB time=00:00:17.75 bitrate=8387.2kbits/s speed=0.202x    frame=  492 fps=5.6 q=29.0 size=   18174kB time=00:00:17.87 bitrate=8328.6kbits/s speed=0.202x    frame=  496 fps=5.6 q=30.0 size=   18174kB time=00:00:18.04 bitrate=8251.5kbits/s speed=0.203x    frame=  500 fps=5.6 q=30.0 size=   18174kB time=00:00:18.20 bitrate=8176.3kbits/s speed=0.203x    frame=  500 fps=5.2 q=-1.0 Lsize=   22340kB time=00:00:20.70 bitrate=8837.1kbits/s speed=0.215x    
video:22335kB audio:0kB subtitle:0kB other streams:0kB global headers:0kB muxing overhead: 0.021818%
bench: utime=313.136s
bench: maxrss=1820060kB
[libx264 @ 0x3c0b1c0] frame I:8     Avg QP:24.59  size:165502
[libx264 @ 0x3c0b1c0] frame P:269   Avg QP:29.67  size: 56071
[libx264 @ 0x3c0b1c0] frame B:223   Avg QP:28.43  size: 28983
[libx264 @ 0x3c0b1c0] consecutive B-frames: 37.0%  8.4%  6.6% 48.0%
[libx264 @ 0x3c0b1c0] mb I  I16..4: 31.9% 64.3%  3.8%
[libx264 @ 0x3c0b1c0] mb P  I16..4: 23.9% 15.3%  0.3%  P16..4: 27.3%  3.1%  1.4%  0.0%  0.0%    skip:28.8%
[libx264 @ 0x3c0b1c0] mb B  I16..4:  1.2%  2.1%  0.1%  B16..8: 32.4%  2.6%  0.4%  direct: 1.3%  skip:60.0%  L0:41.9% L1:54.8% BI: 3.3%
[libx264 @ 0x3c0b1c0] final ratefactor: 26.61
[libx264 @ 0x3c0b1c0] 8x8 transform intra:41.8% inter:89.2%
[libx264 @ 0x3c0b1c0] direct mvs  spatial:98.7% temporal:1.3%
[libx264 @ 0x3c0b1c0] coded y,uvDC,uvAC intra: 14.1% 26.5% 2.1% inter: 5.9% 7.3% 0.1%
[libx264 @ 0x3c0b1c0] i16 v,h,dc,p: 27% 27%  9% 36%
[libx264 @ 0x3c0b1c0] i8 v,h,dc,ddl,ddr,vr,hd,vl,hu: 14% 11% 31%  6%  8%  7%  9%  6%  8%
[libx264 @ 0x3c0b1c0] i4 v,h,dc,ddl,ddr,vr,hd,vl,hu: 14% 15%  8%  7% 14% 11% 15%  6%  9%
[libx264 @ 0x3c0b1c0] i8c dc,h,v,p: 72% 16%  9%  3%
[libx264 @ 0x3c0b1c0] Weighted P-Frames: Y:1.1% UV:0.7%
[libx264 @ 0x3c0b1c0] ref P L0: 66.0% 17.9%  9.4%  3.4%  2.5%  0.8%
[libx264 @ 0x3c0b1c0] ref B L0: 90.1%  6.9%  2.4%  0.5%
[libx264 @ 0x3c0b1c0] ref B L1: 97.8%  2.2%
[libx264 @ 0x3c0b1c0] kb/s:8782.16
